# xmcd
#
# Track frame offsets:
#	150
#	12005
#	34630
#	48450
#	60062
#	71162
#	90760
#	101130
#	114540
#	130995
#	155000
#	169762
#
# Disc length: 2418 seconds
#
# Revision: 1
# Processed by: cddbd v1.5.2PL0 Copyright (c) Steve Scherf et al.
# Submitted via: audiograbber 1.83.01
#
DISCID=9109700c
DTITLE=Birthe Kjær - Jeg Skal Aldrig Til Bal Uden Trusser
DYEAR=1973
DGENRE=Pop
TTITLE0=Se Det Var Tider
TTITLE1=Jeg Er Brændt Varm
TTITLE2=Sommer Du Har Mange Venner
TTITLE3=Gammeldags Musik
TTITLE4=Rundt I Rundetårn
TTITLE5=Jeg Skal Aldrig Til Bal Uden Trusser
TTITLE6=Det Er Mig Du Vil Ha'
TTITLE7=Den Grimme Ælling
TTITLE8=Når Soldater Er På Vej
TTITLE9=Det Er Kvinden, Der Bestemmer
TTITLE10=Jeg Venter
TTITLE11=Såd`n Er Du, Såd´n Er Jeg
EXTD=JEG SKAL ALDRIG TIL BAL UDEN TRUSSER
EXTT0=
EXTT1=
EXTT2=
EXTT3=
EXTT4=
EXTT5=
EXTT6=
EXTT7=
EXTT8=
EXTT9=
EXTT10=
EXTT11=
PLAYORDER=
